Coordinates
version=1
nRows=14
nColumns=36
inDegrees=yes

Units are S.I. units (second, meters, Newtons, ...)
If the header above contains a line with 'inDegrees', this indicates whether rotational values are in degrees (yes) or radians (no).

endheader
time	pelvis_tilt	pelvis_list	pelvis_rotation	pelvis_tx	pelvis_ty	pelvis_tz	hip_flexion_r	hip_adduction_r	hip_rotation_r	knee_angle_r	knee_angle_r_beta	ankle_angle_r	subtalar_angle_r	mtp_angle_r	hip_flexion_l	hip_adduction_l	hip_rotation_l	knee_angle_l	knee_angle_l_beta	ankle_angle_l	subtalar_angle_l	mtp_angle_l	lumbar_extension	lumbar_bending	lumbar_rotation	arm_flex_r	arm_add_r	arm_rot_r	elbow_flex_r	pro_sup_r	arm_flex_l	arm_add_l	arm_rot_l	elbow_flex_l	pro_sup_l
      8.90000000	     13.03690560	      0.29757214	     -1.25536498	      0.19000894	      0.94145561	     -0.14405174	    -11.34277954	     -1.98643764	     -6.14975741	      8.70672352	      0.15196099	     16.64407895	     -1.90316218	     -7.49999987	    -15.60885873	      0.89151307	     -2.99261763	      2.97643403	      0.05194857	     10.13696140	      2.39183310	     -7.49999987	    -13.89852032	     -0.05981130	     -0.21815072	     37.05342537	      3.14919925	     58.66440360	    125.11342189	     94.56569031	     46.95606098	      3.90327916	     61.39634156	    116.89095091	     99.47041062
      8.91666670	     13.12297146	      0.32408287	     -1.26007725	      0.18941246	      0.93741500	     -0.14394460	    -11.65492250	     -1.91341024	     -6.40654894	      8.40076330	      0.14662098	     16.72548631	     -1.66677263	     -7.49999987	    -15.77499497	      0.83397602	     -3.25573589	      2.90578586	      0.05071553	      9.94149556	      2.46760016	     -7.49999987	    -13.74866598	     -0.13816125	     -0.52271286	     37.50133910	      3.69979222	     58.63545612	    124.42801438	     94.81820189	     46.88929276	      3.64711914	     60.82813144	    117.14282970	    100.59536266
      8.93333330	     13.31596010	      0.35993937	     -1.16585720	      0.18967748	      0.93025521	     -0.14379891	    -12.00625536	     -1.83588303	     -6.74155679	      8.20022205	      0.14312087	     16.83878093	     -1.51440352	     -7.49999987	    -16.01008186	      0.80152121	     -2.96284710	      2.86661057	      0.05003179	      9.52170333	      1.73957406	     -7.49999987	    -13.60782867	     -0.27308744	     -0.78816894	     38.31747953	      4.21934284	     58.38631585	    124.01267926	     91.01533258	     47.70635018	      3.69046085	     60.60539306	    117.14433771	     96.78792394
      8.95000000	     13.32945776	      0.34484946	     -1.27482667	      0.18842146	      0.93434077	     -0.14434368	    -12.08201672	     -1.75427874	     -6.74631581	      8.06581478	      0.14077502	     16.76159491	     -1.58847627	     -7.49999987	    -16.02072261	      0.72624783	     -3.37434245	      2.94340705	      0.05137214	      9.36394111	      1.87420592	     -7.49999987	    -13.49480067	     -0.38609120	     -0.59455671	     38.66497073	      3.92687645	     58.30864836	    124.07213410	     91.14762664	     47.53781422	      3.37215659	     60.15329623	    116.93215276	     96.94594022
      8.96666670	     13.44226315	      0.31634988	     -1.29743284	      0.19294067	      0.93693282	     -0.14029114	    -12.36900740	     -1.63163644	     -6.83649720	      7.84105612	      0.13685225	     16.72339510	     -1.76450759	     -7.49999987	    -16.21863339	      0.61787660	     -3.70606113	      2.92658673	      0.05107857	      9.26392163	      2.08755509	     -7.49999987	    -13.48549514	     -0.38575676	     -0.56213073	     39.13358277	      4.26643170	     58.52178870	    122.93100659	     93.38150500	     46.93500746	      2.87103111	     59.52733158	    117.02715742	    100.15438239
      8.98333330	     13.47661547	      0.37175942	     -1.23180749	      0.19212633	      0.93441127	     -0.14099258	    -12.53481618	     -1.60858324	     -7.00830971	      7.68567212	      0.13414028	     16.75961741	     -1.82384359	     -7.49999987	    -16.32317256	      0.58131100	     -3.80109339	      2.91440928	      0.05086604	      9.03464585	      2.02954013	     -7.49999987	    -13.41521942	     -0.47087714	     -0.28962203	     39.91240739	      4.17143408	     58.60752962	    122.39222859	     91.91842081	     46.80251903	      2.59428036	     59.33236952	    116.83677365	     98.36081547
      9.00000000	     13.52697127	      0.43800957	     -1.17818661	      0.19216709	      0.93367476	     -0.14057332	    -12.72693514	     -1.58937336	     -7.15479870	      7.49296130	      0.13077685	     16.83356137	     -1.83235825	     -7.49999987	    -16.40266794	      0.55938842	     -4.08350712	      2.96171370	      0.05169166	      8.96844566	      2.20569746	     -7.49999987	    -13.29729489	     -0.51372196	     -0.06603151	     40.72943064	      3.88601664	     58.70065387	    121.80153825	     93.48950966	     46.49198449	      2.32559145	     58.57855342	    116.06326166	    100.56315718
      9.01666670	     13.68124622	      0.49740730	     -1.12812448	      0.19113512	      0.93658423	     -0.14050750	    -13.01731680	     -1.56514817	     -7.18822338	      7.29885571	      0.12738906	     16.81444174	     -1.96925610	     -7.49999987	    -16.56316009	      0.53693802	     -4.38278965	      3.02638371	      0.05282036	      8.89375046	      2.49542307	     -7.49999987	    -13.53449995	     -0.59458435	      0.01301198	     41.12162715	      3.62226355	     59.07065694	    120.73319204	     91.81051413	     46.18777570	      1.87510013	     57.73559932	    114.26649824	     98.39231489
      9.03333330	     13.74036888	      0.58543772	     -1.03210259	      0.19106071	      0.93953900	     -0.14058820	    -13.21874212	     -1.57547778	     -7.36412239	      7.08623940	      0.12367821	     16.80931920	     -1.98083639	     -7.49999987	    -16.63679882	      0.54377275	     -4.37086093	      3.02898713	      0.05286580	      8.65216835	      2.31445296	     -7.49999987	    -13.69207948	     -0.75613437	     -0.11253066	     41.27238304	      3.23312867	     58.84578993	    119.80678118	     90.95642357	     45.44966183	      0.86068586	     55.73162261	    111.77926505	     97.47584267
      9.05000000	     13.71756064	      0.67705685	     -0.93543787	      0.19050066	      0.93691388	     -0.14130415	    -13.30191151	     -1.59842664	     -7.52599018	      6.92847231	      0.12092465	     16.90083134	     -1.84991009	     -7.49999987	    -16.58101935	      0.56191179	     -4.50397078	      3.10037081	      0.05411168	      8.53514222	      2.37451309	     -7.49999987	    -13.79252857	     -0.83129847	     -0.48442182	     41.42988292	      2.63631539	     59.20089615	    119.10577268	     92.29970750	     45.00338995	     -0.19914955	     53.51066822	    109.37509969	     99.52845939
      9.06666670	     13.78415739	      0.76642082	     -0.78805791	      0.19106431	      0.93493850	     -0.14027832	    -13.49395901	     -1.58772701	     -7.69096960	      6.73671358	      0.11757783	     16.87554844	     -1.85524890	     -7.49999987	    -16.58281907	      0.54830023	     -4.55959207	      3.19525617	      0.05576774	      8.38863065	      2.36479360	     -7.49999987	    -13.91161070	     -0.92523941	     -0.82551009	     41.28111587	      2.00935875	     59.09736992	    117.88086894	     91.39991807	     44.32629552	     -1.15379748	     51.79465919	    105.90720428	     98.29101627
      9.08333330	     13.79179551	      0.84242054	     -0.74081671	      0.19048396	      0.93248169	     -0.14085916	    -13.59000037	     -1.60653794	     -7.76391315	      6.55506871	      0.11440753	     16.87003144	     -1.78049533	     -7.49999987	    -16.57045381	      0.57101259	     -4.82688434	      3.24449944	      0.05662720	      8.40942323	      2.61414159	     -7.49999987	    -14.07603006	     -0.96987307	     -0.69256131	     40.80316717	      0.74338316	     57.22061447	    115.82261294	     92.25141423	     43.94214494	     -1.16676388	     51.59183950	    102.55697393	     99.74970806
      9.10000000	     13.79091606	      0.96069273	     -0.60860497	      0.19082311	      0.93448391	     -0.14022218	    -13.72622294	     -1.64666805	     -7.88445672	      6.31593168	      0.11023380	     16.83605511	     -1.76724842	     -7.49999987	    -16.51143828	      0.60403222	     -4.75535839	      3.32411587	      0.05801677	      8.27332930	      2.46966865	     -7.49999987	    -14.14833816	     -0.92111390	     -1.00337407	     40.37406132	     -0.21359386	     55.83278589	    112.37970196	     92.22034130	     43.77075644	     -0.67098165	     51.98182188	     99.47001055	    101.25872536
      9.11666670	     13.72775034	      1.03969270	     -0.46703275	      0.19035142	      0.93478847	     -0.14050187	    -13.76460443	     -1.63679062	     -8.00808636	      6.12021628	      0.10681792	     16.85092865	     -1.72370979	     -7.49999987	    -16.39932939	      0.59824291	     -4.85691908	      3.37777159	      0.05895324	      8.24868118	      2.57499778	     -7.49999987	    -14.13628405	     -0.99323852	     -1.92753605	     39.92673403	     -0.59171665	     55.18028505	    109.16489380	     90.25201705	     44.49743464	     -1.85036674	     53.02962940	     96.53393935	    100.63564587
